:FULLY-SPECIFIED
:FORCE-ALL-JOINTS-BE-3DOF
:DEGREES
114
root 9.24624 16.1048 -21.3208 4.86951 3.47643 5.45439
lfemur 13.711 1.08406 -28.9078
ltibia 1.23912 -0 0
lfoot -16.9827 0.949255 -0.147363
ltoes -4.77021 0 0
rfemur -40.754 9.89214 6.17424
rtibia 34.1378 -0 0
rfoot -23.9082 -14.3784 -0.143552
rtoes -19.567 0 0
lowerback -7.90568 -3.47556 -6.53971
upperback -1.2157 -4.14599 2.06402
thorax 3.77734 -2.16566 5.32972
lowerneck -20.1813 -4.96129 -12.8427
upperneck 21.4584 -5.70149 10.9584
head 10.9632 -2.36757 5.26839
lclavicle -4.69753e-14 -1.90833e-14 0
lhumerus -27.0775 -24.6866 94.1396
lradius 39.0629 -0 0
lwrist 9.39624 0 0
lhand -11.9909 -24.577 -0.0589973
lfingers 7.12502 -0 0
lthumb 14.0687 4.96992 -0.0423311
rclavicle -4.69753e-14 -1.90833e-14 0
rhumerus -46.496 7.9095 -84.1228
rradius 34.4579 -0 0
rwrist -18.7293 0 0
rhand -30.0051 -22.7735 0.00149136
rfingers 7.12502 -0 0
rthumb -3.32235 -52.7275 0.00143843
115
root 9.24375 16.0958 -21.1918 4.92658 3.82546 5.47854
lfemur 14.363 1.06029 -28.8236
ltibia 0.742253 -0 0
lfoot -16.8734 0.743761 -0.141518
ltoes -4.93862 0 0
rfemur -41.0339 10.1308 5.89644
rtibia 33.0315 -0 0
rfoot -24.0037 -14.3048 -0.132027
rtoes -19.8837 0 0
lowerback -7.99318 -3.5267 -6.56031
upperback -1.20788 -4.20648 2.06161
thorax 3.84462 -2.19818 5.33007
lowerneck -20.1031 -5.00372 -12.8901
upperneck 21.4626 -5.7563 10.9561
head 10.9597 -2.39883 5.26715
lclavicle -4.69753e-14 -1.90833e-14 0
lhumerus -27.2826 -24.9584 94.42
lradius 39.358 -0 0
lwrist 9.58922 0 0
lhand -11.9257 -24.5743 -0.0537703
lfingers 7.12502 -0 0
lthumb 14.1313 4.96376 -0.0388973
rclavicle -4.69753e-14 -1.90833e-14 0
rhumerus -46.5821 7.76996 -83.9806
rradius 34.3604 -0 0
rwrist -18.6615 0 0
rhand -29.9772 -22.8268 0.00155861
rfingers 7.12502 -0 0
rthumb -3.29544 -52.7812 0.00150403
116
root 9.24125 16.0867 -21.0627 4.98363 4.16325 5.49655
lfemur 14.9667 1.04046 -28.7304
ltibia 0.316309 -0 0
lfoot -16.7538 0.558408 -0.133724
ltoes -5.1066 0 0
rfemur -41.2913 10.351 5.64664
rtibia 31.9759 -0 0
rfoot -24.0861 -14.2221 -0.119683
rtoes -20.1806 0 0
lowerback -8.0736 -3.57383 -6.57474
upperback -1.20083 -4.2626 2.06047
thorax 3.90628 -2.22828 5.32898
lowerneck -20.0273 -5.04605 -12.9367
upperneck 21.461 -5.81137 10.9568
head 10.9548 -2.42967 5.26677
lclavicle -4.69753e-14 -1.90833e-14 0
lhumerus -27.4962 -25.2071 94.6933
lradius 39.6288 -0 0
lwrist 9.76895 0 0
lhand -11.8547 -24.5668 -0.0482992
lfingers 7.12502 -0 0
lthumb 14.1994 4.96189 -0.0352299
rclavicle -4.69753e-14 -1.90833e-14 0
rhumerus -46.6633 7.6383 -83.8424
rradius 34.2669 -0 0
rwrist -18.5969 0 0
rhand -29.9492 -22.8804 0.00159437
rfingers 7.12502 -0 0
rthumb -3.26835 -52.8352 0.00153916
117
root 9.23876 16.0777 -20.9337 5.04046 4.48882 5.50825
lfemur 15.5195 1.02491 -28.6281
ltibia -0.0342284 0 0
lfoot -16.6239 0.394674 -0.123937
ltoes -5.27387 0 0
rfemur -41.5256 10.5514 5.42693
rtibia 30.9769 -0 0
rfoot -24.1552 -14.1302 -0.106576
rtoes -20.4556 0 0
lowerback -8.14632 -3.6167 -6.58283
upperback -1.19461 -4.31408 2.06065
thorax 3.96184 -2.25582 5.32641
lowerneck -19.9541 -5.08822 -12.9825
upperneck 21.4533 -5.86663 10.9606
head 10.9484 -2.46003 5.26729
lclavicle -4.69753e-14 -1.90833e-14 0
lhumerus -27.7174 -25.4312 94.9581
lradius 39.8736 -0 0
lwrist 9.9345 0 0
lhand -11.7781 -24.5545 -0.0426167
lfingers 7.12502 -0 0
lthumb 14.2729 4.96446 -0.031347
rclavicle -4.69753e-14 -1.90833e-14 0
rhumerus -46.7391 7.51495 -83.7086
rradius 34.1775 -0 0
rwrist -18.5355 0 0
rhand -29.921 -22.934 0.00159309
rfingers 7.12502 -0 0
rthumb -3.24111 -52.8892 0.00153845
118
root 9.23626 16.0687 -20.8046 5.09686 4.80117 5.51343
lfemur 16.0184 1.01403 -28.5165
ltibia -0.304876 0 0
lfoot -16.4836 0.254039 -0.112129
ltoes -5.44011 0 0
rfemur -41.7358 10.7306 5.23941
rtibia 30.0404 -0 0
rfoot -24.2102 -14.029 -0.0927727
rtoes -20.7067 0 0
lowerback -8.21074 -3.65506 -6.5844
upperback -1.18929 -4.36069 2.06219
thorax 4.01085 -2.28065 5.32235
lowerneck -19.8838 -5.13017 -13.0273
upperneck 21.4393 -5.92199 10.9677
head 10.9403 -2.48984 5.26873
lclavicle -4.69753e-14 -1.90833e-14 0
lhumerus -27.9458 -25.6294 95.2133
lradius 40.0907 -0 0
lwrist 10.0849 0 0
lhand -11.696 -24.5372 -0.036757
lfingers 7.12502 -0 0
lthumb 14.3516 4.97164 -0.0272684
rclavicle -4.69753e-14 -1.90833e-14 0
rhumerus -46.8091 7.40031 -83.5795
rradius 34.092 -0 0
rwrist -18.4775 0 0
rhand -29.8926 -22.9872 0.00154885
rfingers 7.12502 -0 0
rthumb -3.21372 -52.9428 0.00149615
119
root 9.23377 16.0596 -20.6756 5.15262 5.09932 5.51189
lfemur 16.4609 1.00823 -28.3956
ltibia -0.49115 0 0
lfoot -16.3328 0.137985 -0.0982948
ltoes -5.60505 0 0
rfemur -41.9214 10.8873 5.08615
rtibia 29.1722 -0 0
rfoot -24.2508 -13.9185 -0.0783437
rtoes -20.9319 0 0
lowerback -8.26623 -3.68867 -6.57927
upperback -1.18492 -4.40216 2.06512
thorax 4.05284 -2.30263 5.31677
lowerneck -19.8166 -5.17184 -13.0711
upperneck 21.4186 -5.97736 10.9782
head 10.9306 -2.51902 5.27112
lclavicle -4.69753e-14 -1.90833e-14 0
lhumerus -28.1805 -25.8002 95.4576
lradius 40.2785 -0 0
lwrist 10.2193 0 0
lhand -11.6087 -24.5147 -0.030756
lfingers 7.12502 -0 0
lthumb 14.4354 4.9836 -0.0230153
rclavicle -4.69753e-14 -1.90833e-14 0
rhumerus -46.8728 7.29478 -83.4554
rradius 34.0104 -0 0
rwrist -18.423 0 0
rhand -29.8641 -23.0396 0.00145531
rfingers 7.12502 -0 0
rthumb -3.18621 -52.9956 0.00140613
120
root 9.23127 16.0506 -20.5466 5.20754 5.38226 5.50343
lfemur 16.8441 1.00796 -28.2653
ltibia -0.588568 0 0
lfoot -16.1716 0.0479924 -0.0824468
ltoes -5.76838 0 0
rfemur -42.0816 11.0201 4.96921
rtibia 28.3784 -0 0
rfoot -24.2766 -13.7985 -0.063371
rtoes -21.1293 0 0
lowerback -8.31217 -3.71729 -6.56725
upperback -1.18157 -4.43825 2.06948
thorax 4.08734 -2.32162 5.30965
lowerneck -19.7528 -5.21317 -13.1136
upperneck 21.3911 -6.03266 10.9922
head 10.9193 -2.54751 5.2745
lclavicle -4.69753e-14 -1.90833e-14 0
lhumerus -28.4208 -25.9423 95.6895
lradius 40.4353 -0 0
lwrist 10.3367 0 0
lhand -11.5164 -24.4871 -0.0246512
lfingers 7.12502 -0 0
lthumb 14.5241 5.0005 -0.018611
rclavicle -4.69753e-14 -1.90833e-14 0
rhumerus -46.9296 7.19878 -83.3366
rradius 33.9324 -0 0
rwrist -18.3721 0 0
rhand -29.8355 -23.0909 0.00130578
rfingers 7.12502 -0 0
rthumb -3.15858 -53.0473 0.00126192
121
root 9.22878 16.0416 -20.4175 5.26143 5.64902 5.48783
lfemur 17.1653 1.0137 -28.1255
ltibia -0.592645 0 0
lfoot -15.9999 -0.0144539 -0.0646212
ltoes -5.92981 0 0
rfemur -42.2157 11.1275 4.89063
rtibia 27.6647 -0 0
rfoot -24.2869 -13.669 -0.0479449
rtoes -21.2968 0 0
lowerback -8.34795 -3.74068 -6.54816
upperback -1.17929 -4.46871 2.07532
thorax 4.11389 -2.33748 5.30096
lowerneck -19.6927 -5.25409 -13.1548
upperneck 21.3564 -6.0878 11.0099
head 10.9062 -2.57524 5.27888
lclavicle -4.69753e-14 -1.90833e-14 0
lhumerus -28.666 -26.0543 95.9078
lradius 40.5595 -0 0
lwrist 10.4362 0 0
lhand -11.4192 -24.454 -0.0184818
lfingers 7.12502 -0 0
lthumb 14.6174 5.02251 -0.0140801
rclavicle -4.69753e-14 -1.90833e-14 0
rhumerus -46.9793 7.11272 -83.2235
rradius 33.8582 -0 0
rwrist -18.325 0 0
rhand -29.8068 -23.1407 0.00109316
rfingers 7.12502 -0 0
rthumb -3.13087 -53.0976 0.00105663
122
root 9.22628 16.0326 -20.2885 5.31409 5.89859 5.46489
lfemur 17.4219 1.026 -27.9761
ltibia -0.498898 0 0
lfoot -15.8177 -0.0478698 -0.0448773
ltoes -6.08905 0 0
rfemur -42.323 11.2081 4.85242
rtibia 27.0371 -0 0
rfoot -24.2813 -13.5298 -0.0321657
rtoes -21.4323 0 0
lowerback -8.37295 -3.75861 -6.52181
upperback -1.17815 -4.49329 2.08266
thorax 4.13202 -2.35006 5.29069
lowerneck -19.6365 -5.29454 -13.1945
upperneck 21.3144 -6.1427 11.0313
head 10.8913 -2.60213 5.28432
lclavicle -4.69753e-14 -1.90833e-14 0
lhumerus -28.9155 -26.1348 96.111
lradius 40.6495 -0 0
lwrist 10.5168 0 0
lhand -11.3174 -24.4155 -0.0122884
lfingers 7.12502 -0 0
lthumb 14.7153 5.0498 -0.00944902
rclavicle -4.69753e-14 -1.90833e-14 0
rhumerus -47.0212 7.03699 -83.1163
rradius 33.7875 -0 0
rwrist -18.2818 0 0
rhand -29.778 -23.1888 0.000809967
rfingers 7.12502 -0 0
rthumb -3.10307 -53.146 0.000783027
123
root 9.22379 16.0235 -20.1594 5.36534 6.12999 5.4344
lfemur 17.611 1.04542 -27.8172
ltibia -0.302844 0 0
lfoot -15.6249 -0.0507697 -0.0232998
ltoes -6.2458 0 0
rfemur -42.403 11.2605 4.85654
rtibia 26.5016 -0 0
rfoot -24.2595 -13.3809 -0.0161436
rtoes -21.534 0 0
lowerback -8.38655 -3.77086 -6.48802
upperback -1.1782 -4.51174 2.09156
thorax 4.14126 -2.35923 5.2788
lowerneck -19.5845 -5.33447 -13.2327
upperneck 21.2648 -6.19726 11.0565
head 10.8747 -2.62813 5.29082
lclavicle -4.69753e-14 -1.90833e-14 0
lhumerus -29.1683 -26.1826 96.2978
lradius 40.7035 -0 0
lwrist 10.5776 0 0
lhand -11.2111 -24.3714 -0.00611322
lfingers 7.12502 -0 0
lthumb 14.8174 5.08253 -0.00474578
rclavicle -4.69753e-14 -1.90833e-14 0
rhumerus -47.0549 6.97201 -83.0154
rradius 33.7203 -0 0
rwrist -18.2425 0 0
rhand -29.7492 -23.2346 0.000448336
rfingers 7.12502 -0 0
rthumb -3.07521 -53.1923 0.000433484
